<?xml version="1.0" encoding="UTF-8"?>
<svg id="Layer_2" data-name="Layer 2" xmlns="http://www.w3.org/2000/svg" viewBox="0 0 826.45 896.17">
  <defs>
    <style>
      .cls-1 {
        fill: #547689;
      }

      .cls-1, .cls-2 {
        stroke-width: 0px;
      }

      .cls-2 {
        fill: #fff;
      }
    </style>
  </defs>
  <g id="Layer_1-2" data-name="Layer 1">
    <path class="cls-2" d="m754.8,338.51c26.68-14.09,50.34-31.24,63.2-59.96,5.11-11.39,9.53-28.24,8.22-33.6-39.62,46.24-96.12,61.99-149.99,82.53,29.76-18.92,59.55-37.76,89.76-55.89,45.35-27.21,55.89-64.13,48.07-112.49-5.13,16.05-12.5,30.46-22.99,43.19-24.64,29.9-57.48,48.56-91.15,65.94-17.96,9.28-36.38,17.69-54.59,26.49,6.45-6.75,13.56-12.22,20.73-17.6,29.39-22.09,61.48-40.43,89.32-64.69,33.16-28.9,39.57-68.88,35.51-101.94-6.66,16.36-15.46,30.72-26.54,43.65-11.19,13.06-23.37,25.13-36.71,35.97-45.94,37.35-89.45,77.25-127.86,122.44-12.48,14.68-24.15,30.06-36.2,45.11,12.3-8.12,23.64-17.07,35.07-25.91,11.24-8.7,22.55-17.29,35.19-26.97-28.5,35.98-54.39,72.02-92.58,96.97,2.41-14.7-1.01-27.63-8.12-39.85,8.84-10.33,17.62-20.54,26.35-30.8,40.16-47.18,80.2-94.5,128.55-133.78,25.32-20.58,51.33-40.18,67.69-69.67,17.86-32.21,17.41-78.76-2.33-104.09-4.24,31.23-13.88,60.65-31.06,86.67-45.56,68.99-103.95,126.75-163.88,182.94-20.83,19.54-44.21,36.39-61.93,59.49,12.57,15.74,25.19,32.1,14.41,53.27-10.6,20.78-32.94,20.08-51.89,25.87v-160.5h32.71c1-4.58-.43-6.65-6.35-8.91.17.39.32.79.45,1.2-24.04-.83-48.04.22-72.03,1.81h-.38c-.04.07-.09.13-.12.2-.99,1.56-.86,3.53-.94,5.41-.21,5,.3,10.04-.32,15.22-2-.89-2.89-2.36-4.14-3.41-5.75-4.82-9.76-11.22-14.83-16.65-.21-.24-.44-.48-.68-.72h-1.55c-3.85-3.42-8.53-1.79-12.83-1.88-12.04-.25-24.09-.11-36.14-.13.2-.41.41-.83.61-1.24-5.5,2.26-6.86,4.55-5.48,9.11h29.91v159.63c-62.39-9.17-65.81-44.82-34.93-79.06-7.22-7.72-13.76-16.34-21.85-23.1-52.4-43.75-100.69-91.66-145.56-143.03-29.01-33.2-58.29-66.29-75.19-107.99-7.1-17.51-12.02-35.61-15.17-55.77-9.65,21.5-16.96,41.87-14.78,64.34,3.54,36.47,23.52,64.07,50.74,85.85,49.1,39.3,93.7,82.91,134.28,130.81,16.74,19.76,33.77,39.26,50.51,58.68-12.9,23.75-9.54,45.82,3.84,66.98,13.14,20.78,33.05,31.74,57.26,37.15-36.56,11.46-97.59-3.46-109.66-26.3,19.59,9.14,56.26,19.84,66.65,19.45-43.01-22.34-95.33-64.77-101.64-82.44,21.75,17.83,44.99,33.28,73.99,46.56-29.93-22.01-53.24-45.38-71.48-73.6,18.91,17.99,40.19,32.77,63.73,48.58-25.98-29.93-50.35-58.01-77.11-88.83,23.36,18.25,43.8,34.22,66.67,52.09-46.52-64.19-100.55-116.67-159.14-164.77-27.53-22.6-53.45-46.72-68.51-80.05-.93-2.07-1.8-4.17-3.44-7.96-1.94,33.92,1.94,64.3,23.23,90.01,13.64,16.48,30.95,28.71,48.37,40.7,25.63,17.64,51.27,35.27,77.45,55.95-5.05-2.19-8.06-3.46-11.06-4.78-39.8-17.61-78.38-37.46-112.79-64.37-22.38-17.51-39.23-39.47-47.75-68.41-7.21,48.97,4.2,88.15,48.64,113.76,31.5,18.15,62.13,37.81,93.15,56.79-55.1-21.63-113.88-36.46-155.39-84.99,4.84,37.84,23.16,65.98,55.14,84.41,31.66,18.25,64.05,35.24,95.32,52.35-48.68-11.69-96.47-28.94-143.99-49.87,16.09,23.76,37.56,39.49,61.6,52.33,42.19,22.54,87.28,38.86,130.19,61.06-58.09-10.57-113.79-28.41-173.26-45.97,43.82,34.52,91.02,54.51,140.29,71.35-38.83-.79-76.48-6.5-116.41-16.08,51.77,34.96,106.47,52.28,167.27,55.81-18.22,5.01-35.2,8.65-52.61,9.61-17.42.97-34.85.41-52.26-1.41,36.34,18.62,73.96,30.63,116.15,23.72-11.4,13.78-25.29,22.93-41.6,30.94,26.39,5.83,51.07,6.3,75.72-6.82-10.54,13.5-22.89,22.81-37.33,31.65,24.19,1.11,45.71-1.77,64.07-19.22-5.84,12.51-14.8,20.68-25.77,28.2,21.82.17,41.28-3.01,57.14-21.45-4.22,10.9-9.24,18.67-16.86,25.67,10.45-1.1,19.87-2.89,29.44-7.95-6.83,18.13-17.51,31.59-35.53,37.51-16.04,5.27-28.7-1.74-39.98-12.75-12.85-12.54-18.14-13.27-30.79-5.08-14.42-.11-23.89,5.68-29.02,18.32-5.35,13.19-4.47,25.82,4.5,38.27-.12-18.34,3.5-24.47,14.82-25.94,3.39-12.22,7.44-14.3,15.54-7.96-11.94,2.97-21.86,21.64-18.17,34.21,3.54,12.09,18.97,20.23,31.01,16.28-7.71-5.22-14.75-10.96-12.57-21.66,1.12-5.51,5.82-4,9.88-3.42-.96-5.6.82-9.69,6.11-10.62,6.08-1.08,10.66,1.95,14.71,7.87-3.89-.36-6.73-.61-10.33-.94,2.25,9.71,3.2,19.35,16.25,20.01,6.22,8.72,3.23,16.35-4.08,24,20.13-8.67,26.77-24.33,20.9-48.57h23.44c-2.4,3.33-4.81,6.66-7.42,10.29,13.64-.46,26.38-2.74,38.86-9.2-22.05,37.36-76.27,75.04-131.84,91.7,45.6,23.28,83.47,11.17,117.36-22.47-16.55,23.23-36.68,42.18-62.88,55.71,25.06,7.71,47.87,5.24,70.36-7.8-5.25,12.22-13.17,21.62-21.75,31.32,22.88-.6,42.09-8.71,58.85-23.77,10.72,38.15,22.94,75.11,43.14,109.34,19.99-34.34,31.95-71.2,42.86-109.22,16.91,16.47,37.13,23.21,60.62,23.77-8.92-9.82-17.46-18.98-22.27-31.43,23.03,13.23,52.34,16.15,70.66,7.33-33.5-21.21-56.86-41.5-62.45-54.23,46.8,36.62,85.82,43.6,116.43,21.06-55.65-12.91-97.54-46.05-134.64-92.67,15.56,7.64,28.51,10.84,42.56,10.46-2.84-3.6-5.42-6.85-7.88-9.97h23.38c-8.24,21.03,1.99,44.19,20.3,47.4-8.26-9.61-9.28-16.9-3.25-23.16,9.17-.89,16.31-10.25,15.18-20.03-2.9.45-5.79.89-9.18,1.42,2.89-5.91,6.92-9.27,13.15-8.39,6.16.86,7.31,5.77,7.35,11.41,3.64-1.64,7.42-2.49,8.81,1.67,3.85,11.49-4.46,17.3-12.25,23.4,15.16,1.81,27.09-4.6,31.19-16.42,3.96-11.4-3.75-27.32-17.25-35.47,10.99-6.36,14.21-.16,14.96,9.52,2.25-.2,4.05-.35,5.98-.52,8.24,6.34,9.59,15.16,8.58,25.85,9.26-12.46,10.23-24.99,5.16-37.75-4.51-11.35-12.18-19.44-25.79-19.13-1.51.04-3.22-.8-4.54-1.67-7.71-5.07-15.17-4.28-22.17,1.15-4.98,3.86-9.36,8.53-14.39,12.33-11.59,8.76-24.41,10.58-37.6,4.35-15.21-7.18-25.29-19.15-31.3-36.31,9.82,5.93,19.26,7.71,29.93,8.42-7.64-6.99-13.24-14.28-16.48-24.43,17.77,16.54,37.23,23.2,56.37,19.54-10.74-6.53-19.37-14.62-25.62-26.84,20.43,15.65,44.15,22.21,63.16,18.08-6.27-4.37-12.74-8.64-18.94-13.27-6.17-4.63-11.53-10.11-16.27-16.98,23.48,11.11,56.37,13.25,72.38,4.78-15.41-6.56-28.1-16.39-38.97-29.43,41.84,5.96,79.55-4.5,117.82-25.17-37.19,5.93-71.13,2.02-105.45-6.93,59.88-3.99,114.55-21.04,165.51-55.09-14.22,2.84-26.52,5.6-38.92,7.69-12.29,2.07-24.66,3.77-37.05,5.07-12.36,1.3-24.79,1.89-39.18,2.95,49.65-18.32,96.73-37.13,138.41-71.48-57.86,17.06-113.05,34.86-170.21,45.35.85-.96,1.89-1.38,2.88-1.89,39.57-20.18,81.52-35.31,120.59-56.57,33.48-18.22,54.38-35.68,65.02-54.25-46.56,21.11-94.52,37.43-145.41,50.12,27.41-14.52,53.39-28.34,79.41-42.08ZM232.91,491.18c35.95,7.97,71.25,10.52,107.26-.51-15.91,20.15-75.21,20.15-107.26.51Zm173.95,348.09c0,.46-.12.93-.32,2.43-11.39-30.73-20.7-60.95-27.17-91.76-2.97-14.17-.43-29.5-.32-44.31.99-139.74,4.5-279.46,3.81-419.22v-4.75c8.27,9.65,15.63,18.13,22.8,26.77.93,1.12,1.2,3.07,1.2,4.64.04,175.4.02,350.8,0,526.2Zm32.44-172.91c-3.32,11.53-6.97,22.93-11.37,34.08-.77,1.94-1.41,4.03-3.88,5.22-1-1.97-.64-3.79-.64-5.51-.03-17.14-.01-34.28-.03-51.43-.01-1.81.32-3.66-.32-5.44-.02-68.77-.05-137.53.02-206.3,0-2.19.64-4.65,1.75-6.52,5.06-8.49,10.39-16.83,17.21-27.76v228.58c.78,11.83.58,23.54-2.74,35.08Zm152.04-156.07c-1.92,6.32-5.1,11.71-11.46,15.07,2.77-13.45-1.39-19.25-16.64-23.13-18.66-4.75-35.82-1.05-52.9,10.2,12.52-2.57,23.77-2.57,38.51-1.02-21.74,2.8-36.95,11.17-49.82,24.11-1.12.59-2.25-.69-3.72.28-3.47,4.02-6.05,9.03-8.58,14.1-2.47,4.94-3.36,10.43-5.21,15.64-1.96-3.03-.4-6.3-1.49-9.23-.23-14.94,3.99-28.41,13.79-40.64-11.02,2.7-20.55,7.34-30.46,13.8,5.06-12.1,11.16-22.06,23.75-27.83-10.93.4-19.86,3.91-28.66,7.9v-58.37c14.13-4.64,28.44-5.36,44.72-5.17-4.45-1.7-7.22-2.75-12.22-4.66,28.54.29,53.09,5.25,74.95,22.69-12.63,3.3-23.23,10.22-36.53,4.64-10.59-4.44-22.32-2.35-33.77-.53,20.22.14,30.96,26.44,54.24,18.36,5.79-11.6,13.45-15.51,23.41-11.47,15.65,6.35,22.7,20.07,18.09,35.26Zm-39.32-92.05c24.44-12.78,47.76-26.32,68.32-44.15-7.22,16.34-50.38,44.46-68.32,44.15Z"/>
    <path class="cls-1" d="m477.84,252.5c2.48.08,4.97.22,7.45.21,13.39-.06,17,3.47,17.49,17.06.29,7.86.65,15.71.97,23.57-2.83,1.38-1.65-1.03-1.66-1.91-.07-6.37-.04-12.75-.04-19.58-3.86-.21-7.08-.39-10.3-.57-.15-3.96-2.8-6.01-5.9-7.71-3.13-3.36-6.74-6.38-8.02-11.08Z"/>
    <path class="cls-1" d="m325.64,271.16c1.41-14.39,5.79-18.07,21.22-17.77,1.53,4.92-2.3,7.19-4.96,10.04-3.35,1.56-4.9,4.22-4.87,7.87-3.8-.05-7.59-.1-11.39-.15Z"/>
    <path class="cls-2" d="m502.55,212.84v21.16h-62.5c-1.87-51.09-3.74-101.96-5.59-152.63,18.99-12.3,27.07-30.88,21.73-49.42C450.79,13.17,434.63.44,415.64.01c-19.84-.45-37.36,11.74-43.13,30.01-6.09,19.29,1.16,37.97,20.04,51.19-1.45,50.71-2.9,101.59-4.36,152.46h-63.52v-20.53c-14.08,13.35-27.54,26.12-40.46,38.38,13.6,13.86,26.81,27.33,40.28,41.07.4-7.45.77-14.44,1.14-21.44,2.07-1.36,1.88-3.74,2.5-5.73,2.33-7.52,5.75-10.2,13.58-10.41,2.31-.06,4.61-.22,6.9-.53,3.81-.18,7.64-.17,11.47-.17,38.95-.04,77.89.09,116.84-.08,3.49-.6,6.99-.12,10.46.02,8.48.35,11.59,3.56,13.56,11.81,1.84,7.75,1.19,15.52,1.5,23.29.05,1.31-1.42,3.45,1.31,3.99,14.07-13.18,28.13-26.35,42.35-39.66-15.58-14.6-29.16-27.34-43.56-40.84Zm-112.82-174.43c2.86-13.07,13.3-20.35,27.16-18.95,3.55,2.12,2.29,5.88,3.02,8.96.5,2.11.44,4.27.36,6.41-1.77,6.13-3.12,7.01-12.81,8.34-1.63,1.98-.66,4.43-1.06,6.65-.02,3.89,1.54,7.47,2.12,11.24.27,1.79,1.29,4.07-1.8,4.65-12.34-4.39-19.48-15.87-16.98-27.3Zm29.09,69.12c-7.21-3.62-14.43-7.24-21.75-10.91.31-3.77.57-7.04.91-11.19,7.51,3.52,14.64,6.86,21.76,10.21,2.93,5.27,2.63,9.21-.92,11.9Zm-3.94,122.89c-7.86-2.16-14.59-6.51-21.55-10.38.21-3.99.38-7.42.62-11.99,7.44,4.05,14.18,7.73,20.93,11.4,2.1,3.66,2.75,7.31,0,10.97Zm6.32-31.22c-.36,1.56-1.06,3.21-3.32,2.23-7.89-4.11-15.78-8.23-23.55-12.28.26-4.06.48-7.33.77-11.78,8.56,4.53,16.65,8.81,24.75,13.1,2.27,2.63,2.06,5.69,1.35,8.73Zm.53-31.21c-.04,1.66-.35,3.5-2.89,2.52-7.8-3.99-15.61-7.98-23.29-11.9.22-3.98.4-7.28.65-11.86,8.17,4.08,15.89,7.93,23.61,11.78,2.12,2.85,1.99,6.19,1.92,9.46Zm-1.89-28.49c-7.69-3.89-15.38-7.78-23.25-11.76.17-3.81.32-7.27.54-11.99,7.98,4.06,15.42,7.84,22.85,11.62,2.07,2.68,1.89,5.89,2.02,8.98.06,1.36.05,3.14-2.16,3.14Z"/>
    <path class="cls-1" d="m423.06,643.28v60.93c10.1-23.57,20.22-46.86,18.98-72.92-.29,66.06,14.57,133.55-18.98,194.87v-182.87Z"/>
    <path class="cls-1" d="m413.83,265.4v25.12c-8.93-7.86-16.24-16.18-22.96-25.07h1.55c7.02-.01,14.02-.03,21.03-.05h.38Z"/>
    <path class="cls-1" d="m480.03,556.31c.5,2.56,1,5.12,1.43,7.33.96-12.29,7.43-22.34,15.13-31.91.9,1.4,1.67,2.6,2.44,3.8-8.3,10.66-15.07,22.09-19,35.62v-14.82Z"/>
    <path class="cls-1" d="m418.92,35.49c-.67-5.34-1.35-10.69-2.02-16.03,10.33,1.05,17.23,7,20.84,16.21,3.33,8.48,1.93,16.96-4.74,23.52-7.3,7.17-16.08,10.15-26.28,6.53,2.05-5.72-2.98-10.7-1.72-16.34,2.47-.48,3.83,1.59,5.69,2.49,3.9,1.89,8.62.86,11.61-2.62,2.48-2.88,2.75-8.48.79-11.62-1.03-1.65-2.56-1.87-4.17-2.13Z"/>
    <path class="cls-1" d="m418.84,170.51c3.23-3.76.08-8.03.97-11.98,4.88,2.68,9.76,5.36,14.68,8.06.32,3.78.63,7.35,1.03,12-5.97-2.89-11.33-5.49-16.68-8.08Z"/>
    <path class="cls-1" d="m419.84,139.5c.05-4.04.09-8.09.14-12.13,4.56,2.23,9.11,4.45,13.65,6.67.29,4.24.55,7.97.86,12.55-5.3-2.57-9.97-4.83-14.64-7.09Z"/>
    <path class="cls-1" d="m417.89,201.43c4.59-2.95.7-7.42,1.97-10.96,4.55,2.34,9.1,4.67,13.98,7.18.39,3.47.76,6.84,1.28,11.43-6.45-2.87-11.84-5.26-17.23-7.65Z"/>
    <path class="cls-1" d="m418.83,107.53c2.68-3.78.56-7.94.92-11.9,4.18,1.89,8.36,3.79,12.77,5.79.3,4.25.58,8.29.92,13.11-5.24-2.51-9.92-4.75-14.61-6.99Z"/>
    <path class="cls-1" d="m414.89,230.42c0-3.66,0-7.31,0-10.97,4.69,2.69,9.38,5.38,13.6,7.79.9,4.13-1.2,5.64-4.34,7.55-2.82-1.33-6.04-2.85-9.26-4.37Z"/>
    <path class="cls-2" d="m418.92,35.49c.43-.85.85-1.7,1.41-2.81,6.32,4.89,8.27,11.01,3.37,17.15-5.82,7.3-12.59,5.62-18.7-.45v-8.95c5.56.36,11.81,3.15,13.91-4.92Z"/>
  </g>
</svg>
